<svg width="180" height="204" viewBox="0 0 180 204" fill="none" xmlns="http://www.w3.org/2000/svg">
<path d="M177.886 56.9946V146.998C177.886 148.753 177.424 150.477 176.546 151.998C175.668 153.518 174.406 154.78 172.886 155.658L94.9431 200.659C93.4222 201.535 91.6979 201.996 89.9429 201.996C88.1879 201.996 86.4637 201.535 84.9428 200.659L7.00017 155.658C5.47996 154.78 4.21756 153.518 3.33985 151.998C2.46214 150.477 2.00004 148.753 2 146.998L2 56.9946C2.00004 55.2392 2.46214 53.5148 3.33985 51.9946C4.21756 50.4744 5.47996 49.212 7.00017 48.3343L84.9428 3.33281C86.4637 2.45705 88.1879 1.99609 89.9429 1.99609C91.6979 1.99609 93.4222 2.45705 94.9431 3.33281L172.886 48.3343C174.406 49.212 175.668 50.4744 176.546 51.9946C177.424 53.5148 177.886 55.2392 177.886 56.9946Z" fill="#0C0C0C" stroke="#BBFF00" stroke-width="3"/>
<path d="M89.7467 58H102.404L107.952 78.5485H121.008L112.09 94.0555L124.578 140.69H111.632L103.224 109.411L85.143 140.697H70.6942L98.6303 92.2773L94.1368 75.4678L56.4625 140.704H42L89.7467 58Z" fill="#BBFF00"/>
</svg>
